<?xml version="1.0" encoding="UTF-8"?>
<svg id="focus-thunder" xmlns="http://www.w3.org/2000/svg" width="64" height="64" viewBox="0 0 64 64">
  <line x1="52" y1="41.25" x2="46" y2="51.25" style="fill: none; stroke: #600101; stroke-linecap: round; stroke-miterlimit: 10; stroke-width: 3px;"/>
  <line x1="40" y1="41.25" x2="34" y2="51.25" style="fill: none; stroke: #600101; stroke-linecap: round; stroke-miterlimit: 10; stroke-width: 3px;"/>
  <line x1="52" y1="52.25" x2="46" y2="62.25" style="fill: none; stroke: #600101; stroke-linecap: round; stroke-miterlimit: 10; stroke-width: 3px;"/>
  <line x1="40" y1="52.25" x2="34" y2="62.25" style="fill: none; stroke: #600101; stroke-linecap: round; stroke-miterlimit: 10; stroke-width: 3px;"/>
  <path d="M19,50.5h-9.78c-.56,0-.92-.59-.67-1.09l8.67-17.34c.17-.35.53-.57.92-.57h12.06c.56,0,.9.63.59,1.09l-11.78,17.91Z" style="fill: #600101;"/>
  <path d="M11.34,63.5h-.94c-.3,0-.5-.32-.36-.59l8.16-16.41h11.39c.37,0,.55.47.27.72l-17.83,16.02c-.19.17-.43.26-.69.26Z" style="fill: #600101;"/>
  <path d="M64,31.25c0,5.93-3.98,10.93-9.41,12.49l.41-.68c.48-.8.62-1.74.4-2.65-.23-.91-.79-1.67-1.59-2.15-.54-.33-1.17-.5-1.8-.5-1.22,0-2.37.65-3,1.7l-2.88,4.8h-3.84l.72-1.2c.48-.8.62-1.74.4-2.65-.23-.91-.79-1.67-1.59-2.15-.54-.33-1.17-.5-1.8-.5-1.22,0-2.37.65-3,1.7l-2.88,4.8h-8.61l6.94-10.55c.55-.83.6-1.89.12-2.77-.47-.88-1.39-1.42-2.38-1.42h-12.06c-1.15,0-2.19.64-2.71,1.67l-6.48,12.95c-5.06-.75-8.95-5.1-8.95-10.37,0-5.79,4.68-10.48,10.46-10.5-.3-.95-.46-1.96-.46-3,0-5.52,4.48-10,10-10,2.32,0,4.45.8,6.14,2.12.92-6.84,6.77-12.12,13.86-12.12,7.73,0,14,6.27,14,14,0,1.47-.23,2.89-.65,4.22,6.06,1.11,10.65,6.4,10.65,12.78Z" style="fill: #600101;"/>
</svg>