<?xml version="1.0" encoding="UTF-8"?>
<svg id="snow" xmlns="http://www.w3.org/2000/svg" width="64" height="64" viewBox="0 0 64 64">
  <path d="M53.35,18.22c.42-1.33.65-2.75.65-4.22,0-7.73-6.27-14-14-14-7.09,0-12.94,5.28-13.86,12.12-1.7-1.32-3.82-2.12-6.14-2.12-5.52,0-10,4.48-10,10,0,1.05.16,2.05.46,3-5.78.02-10.46,4.71-10.46,10.5s4.7,10.5,10.5,10.5h40.5c7.18,0,13-5.82,13-13,0-6.38-4.59-11.67-10.65-12.78Z" style="fill: #ff9c33;"/>
  <g>
    <line x1="19" y1="50" x2="19" y2="62" style="fill: none; stroke: #424242; stroke-linecap: round; stroke-miterlimit: 10; stroke-width: 3px;"/>
    <line x1="24.2" y1="53" x2="13.8" y2="59" style="fill: none; stroke: #424242; stroke-linecap: round; stroke-miterlimit: 10; stroke-width: 3px;"/>
    <line x1="24.2" y1="59" x2="13.8" y2="53" style="fill: none; stroke: #424242; stroke-linecap: round; stroke-miterlimit: 10; stroke-width: 3px;"/>
  </g>
  <g>
    <line x1="7" y1="38" x2="7" y2="50" style="fill: none; stroke: #424242; stroke-linecap: round; stroke-miterlimit: 10; stroke-width: 3px;"/>
    <line x1="12.2" y1="41" x2="1.8" y2="47" style="fill: none; stroke: #424242; stroke-linecap: round; stroke-miterlimit: 10; stroke-width: 3px;"/>
    <line x1="12.2" y1="47" x2="1.8" y2="41" style="fill: none; stroke: #424242; stroke-linecap: round; stroke-miterlimit: 10; stroke-width: 3px;"/>
  </g>
  <g>
    <line x1="57" y1="38" x2="57" y2="50" style="fill: none; stroke: #424242; stroke-linecap: round; stroke-miterlimit: 10; stroke-width: 3px;"/>
    <line x1="62.2" y1="41" x2="51.8" y2="47" style="fill: none; stroke: #424242; stroke-linecap: round; stroke-miterlimit: 10; stroke-width: 3px;"/>
    <line x1="62.2" y1="47" x2="51.8" y2="41" style="fill: none; stroke: #424242; stroke-linecap: round; stroke-miterlimit: 10; stroke-width: 3px;"/>
  </g>
  <g>
    <line x1="32" y1="38" x2="32" y2="50" style="fill: none; stroke: #424242; stroke-linecap: round; stroke-miterlimit: 10; stroke-width: 3px;"/>
    <line x1="37.2" y1="41" x2="26.8" y2="47" style="fill: none; stroke: #424242; stroke-linecap: round; stroke-miterlimit: 10; stroke-width: 3px;"/>
    <line x1="37.2" y1="47" x2="26.8" y2="41" style="fill: none; stroke: #424242; stroke-linecap: round; stroke-miterlimit: 10; stroke-width: 3px;"/>
  </g>
  <g>
    <line x1="45" y1="50" x2="45" y2="62" style="fill: none; stroke: #424242; stroke-linecap: round; stroke-miterlimit: 10; stroke-width: 3px;"/>
    <line x1="50.2" y1="53" x2="39.8" y2="59" style="fill: none; stroke: #424242; stroke-linecap: round; stroke-miterlimit: 10; stroke-width: 3px;"/>
    <line x1="50.2" y1="59" x2="39.8" y2="53" style="fill: none; stroke: #424242; stroke-linecap: round; stroke-miterlimit: 10; stroke-width: 3px;"/>
  </g>
</svg>