<?xml version="1.0" encoding="UTF-8"?>
<svg id="rain" xmlns="http://www.w3.org/2000/svg" width="64" height="64" viewBox="0 0 64 64">
  <path d="M53.35,18.22c.42-1.33.65-2.75.65-4.22,0-7.73-6.27-14-14-14-7.09,0-12.94,5.28-13.86,12.12-1.7-1.32-3.82-2.12-6.14-2.12-5.52,0-10,4.48-10,10,0,1.05.16,2.05.46,3-5.78.02-10.46,4.71-10.46,10.5s4.7,10.5,10.5,10.5h40.5c7.18,0,13-5.82,13-13,0-6.38-4.59-11.67-10.65-12.78Z" style="fill: #ff9c33;"/>
  <line x1="14" y1="41" x2="8" y2="51" style="fill: none; stroke: #424242; stroke-linecap: round; stroke-miterlimit: 10; stroke-width: 3px;"/>
  <line x1="50" y1="41" x2="44" y2="51" style="fill: none; stroke: #424242; stroke-linecap: round; stroke-miterlimit: 10; stroke-width: 3px;"/>
  <line x1="38" y1="41" x2="32" y2="51" style="fill: none; stroke: #424242; stroke-linecap: round; stroke-miterlimit: 10; stroke-width: 3px;"/>
  <line x1="26" y1="41" x2="20" y2="51" style="fill: none; stroke: #424242; stroke-linecap: round; stroke-miterlimit: 10; stroke-width: 3px;"/>
  <line x1="14" y1="52" x2="8" y2="62" style="fill: none; stroke: #424242; stroke-linecap: round; stroke-miterlimit: 10; stroke-width: 3px;"/>
  <line x1="50" y1="52" x2="44" y2="62" style="fill: none; stroke: #424242; stroke-linecap: round; stroke-miterlimit: 10; stroke-width: 3px;"/>
  <line x1="38" y1="52" x2="32" y2="62" style="fill: none; stroke: #424242; stroke-linecap: round; stroke-miterlimit: 10; stroke-width: 3px;"/>
  <line x1="26" y1="52" x2="20" y2="62" style="fill: none; stroke: #424242; stroke-linecap: round; stroke-miterlimit: 10; stroke-width: 3px;"/>
</svg>