<?xml version="1.0" encoding="UTF-8"?>
<svg id="wind" xmlns="http://www.w3.org/2000/svg" width="64" height="64" viewBox="0 0 64 64">
  <line x1="2" y1="28" x2="50" y2="28" style="fill: none; stroke: #424242; stroke-linecap: round; stroke-miterlimit: 10; stroke-width: 4px;"/>
  <line x1="2" y1="36" x2="35" y2="36" style="fill: none; stroke: #ff9c33; stroke-linecap: round; stroke-miterlimit: 10; stroke-width: 4px;"/>
  <line x1="2" y1="20" x2="21" y2="20" style="fill: none; stroke: #424242; stroke-linecap: round; stroke-miterlimit: 10; stroke-width: 4px;"/>
  <path d="M36,15c0-7.18,5.82-13,13-13s13,5.82,13,13-5.82,13-13,13" style="fill: none; stroke: #424242; stroke-linecap: round; stroke-miterlimit: 10; stroke-width: 4px;"/>
  <path d="M14,13c0-3.87,3.13-7,7-7s7,3.13,7,7-3.13,7-7,7" style="fill: none; stroke: #424242; stroke-linecap: round; stroke-miterlimit: 10; stroke-width: 4px;"/>
  <path d="M35,36c6.08,0,11,4.92,11,11s-4.92,11-11,11-11-4.92-11-11" style="fill: none; stroke: #ff9c33; stroke-linecap: round; stroke-miterlimit: 10; stroke-width: 4px;"/>
</svg>